<svg width="17" height="16" viewBox="0 0 17 16" fill="none" xmlns="http://www.w3.org/2000/svg">
<path d="M12.2714 11.1047L9.44275 13.9333C9.31905 14.0571 9.17215 14.1554 9.01046 14.2224C8.84877 14.2894 8.67545 14.3239 8.50042 14.3239C8.32539 14.3239 8.15207 14.2894 7.99038 14.2224C7.82869 14.1554 7.68179 14.0571 7.55808 13.9333L4.72875 11.1047C3.9829 10.3588 3.47497 9.40845 3.26921 8.3739C3.06344 7.33934 3.16908 6.267 3.57275 5.29247C3.97643 4.31795 4.66002 3.48501 5.53707 2.89899C6.41413 2.31297 7.44526 2.00018 8.50008 2.00018C9.55491 2.00018 10.586 2.31297 11.4631 2.89899C12.3402 3.48501 13.0237 4.31795 13.4274 5.29247C13.8311 6.267 13.9367 7.33934 13.731 8.3739C13.5252 9.40845 13.0173 10.3588 12.2714 11.1047V11.1047Z" stroke="black" stroke-width="2" stroke-linecap="round" stroke-linejoin="round"/>
<path d="M9.91421 8.74753C10.2893 8.37245 10.5 7.86375 10.5 7.33331C10.5 6.80288 10.2893 6.29417 9.91421 5.9191C9.53914 5.54403 9.03043 5.33331 8.5 5.33331C7.96957 5.33331 7.46086 5.54403 7.08579 5.9191C6.71071 6.29417 6.5 6.80288 6.5 7.33331C6.5 7.86375 6.71071 8.37245 7.08579 8.74753C7.46086 9.1226 7.96957 9.33331 8.5 9.33331C9.03043 9.33331 9.53914 9.1226 9.91421 8.74753Z" stroke="black" stroke-width="2" stroke-linecap="round" stroke-linejoin="round"/>
</svg>
